# xmcd
#
# Track frame offsets:
# 150
# 17892
# 37220
# 63680
# 76320
# 91825
# 108322
# 122275
# 141715
# 160270
#
# Disc length: 2361 seconds
#
# Revision: 1
# Processed by: cddbd v1.5PL3 Copyright (c) Steve Scherf et al.
# Submitted via: Easy CD Ripper v2.13
#
DISCID=8609370a
DTITLE=Osmond 2ndG - Osmond Boys
DYEAR=1990
DGENRE=R&B
TTITLE0=Reverse Psychology - Osmonds 2ndG
TTITLE1=Trust My Love - Osmonds 2ndG
TTITLE2=Wait On Love - Osmonds 2ndG
TTITLE3=I Can't Help Myself - Osmonds 2ndG
TTITLE4=All Tied Up - Osmonds 2ndG
TTITLE5=Next To You - Osmonds 2ndG
TTITLE6=Hey Girl - Osmonds 2ndG
TTITLE7=The Minute I Saw You - Osmonds 2ndG
TTITLE8=I'm Still Gonna Need You - Osmonds 2ndG
TTITLE9=Bein' Boys - Osmonds 2ndG
EXTD=
EXTT0=
EXTT1=
EXTT2=
EXTT3=
EXTT4=
EXTT5=
EXTT6=
EXTT7=
EXTT8=
EXTT9=
PLAYORDER=
